<svg width="32" height="32" viewBox="0 0 32 32" fill="none" xmlns="http://www.w3.org/2000/svg">
<path d="M18.0004 12.0635C18.0004 12.0635 18.7618 11.6884 16.0001 11.6884C15.0111 11.6884 14.0442 11.9817 13.2219 12.5312C12.3995 13.0807 11.7585 13.8617 11.38 14.7754C11.0016 15.6892 10.9025 16.6947 11.0955 17.6647C11.2884 18.6348 11.7647 19.5258 12.4641 20.2252C13.1634 20.9245 14.0545 21.4008 15.0245 21.5938C15.9946 21.7867 17 21.6877 17.9138 21.3092C18.8276 20.9307 19.6086 20.2897 20.158 19.4674C20.7075 18.645 21.0008 17.6782 21.0008 16.6891" stroke="white" stroke-width="1.00189" stroke-miterlimit="10" stroke-linecap="round"/>
<path d="M15.9967 9.31267L18.4986 11.8145L15.9967 14.3163" stroke="white" stroke-width="1.00189" stroke-linecap="round" stroke-linejoin="round"/>
<path d="M15.9987 3.99873C9.3737 3.99873 3.9987 9.37373 3.9987 15.9987C3.9987 22.6237 9.3737 27.9987 15.9987 27.9987C22.6237 27.9987 27.9987 22.6237 27.9987 15.9987C27.9987 9.37373 22.6237 3.99873 15.9987 3.99873Z" stroke="white" stroke-width="1.00189" stroke-miterlimit="10"/>
</svg>
