<svg width="33" height="32" viewBox="0 0 33 32" fill="none" xmlns="http://www.w3.org/2000/svg">
<path d="M16.5057 17.6344C17.4338 17.6344 18.1862 16.9048 18.1862 16.0047C18.1862 15.1047 17.4338 14.3751 16.5057 14.3751C15.5775 14.3751 14.8251 15.1047 14.8251 16.0047C14.8251 16.9048 15.5775 17.6344 16.5057 17.6344Z" fill="white"/>
<path d="M22.3056 17.6344C23.2337 17.6344 23.9861 16.9048 23.9861 16.0047C23.9861 15.1047 23.2337 14.3751 22.3056 14.3751C21.3774 14.3751 20.625 15.1047 20.625 16.0047C20.625 16.9048 21.3774 17.6344 22.3056 17.6344Z" fill="white"/>
<path d="M10.7032 17.6344C11.6314 17.6344 12.3838 16.9048 12.3838 16.0047C12.3838 15.1047 11.6314 14.3751 10.7032 14.3751C9.77507 14.3751 9.02264 15.1047 9.02264 16.0047C9.02264 16.9048 9.77507 17.6344 10.7032 17.6344Z" fill="white"/>
<path d="M28.8762 16.0001C28.8762 9.37511 23.3332 4.00011 16.5012 4.00011C9.66914 4.00011 4.12617 9.37511 4.12617 16.0001C4.12617 22.6251 9.66914 28.0001 16.5012 28.0001C23.3332 28.0001 28.8762 22.6251 28.8762 16.0001Z" stroke="white" stroke-width="1.00189" stroke-miterlimit="10"/>
</svg>
